<?xml version="1.0" encoding="UTF-8" standalone="no"?>
<svg
   xmlns:dc="http://purl.org/dc/elements/1.1/"
   xmlns:cc="http://creativecommons.org/ns#"
   xmlns:rdf="http://www.w3.org/1999/02/22-rdf-syntax-ns#"
   xmlns:svg="http://www.w3.org/2000/svg"
   xmlns="http://www.w3.org/2000/svg"
   xmlns:sodipodi="http://sodipodi.sourceforge.net/DTD/sodipodi-0.dtd"
   xmlns:inkscape="http://www.inkscape.org/namespaces/inkscape"
   fill="#000000"
   viewBox="0 0 50 50"
   width="50px"
   height="50px"
   version="1.1"
   id="svg4"
   sodipodi:docname="icons8-git.svg"
   inkscape:version="0.92.5 (2060ec1f9f, 2020-04-08)">
  <metadata
     id="metadata10">
    <rdf:RDF>
      <cc:Work
         rdf:about="">
        <dc:format>image/svg+xml</dc:format>
        <dc:type
           rdf:resource="http://purl.org/dc/dcmitype/StillImage" />
      </cc:Work>
    </rdf:RDF>
  </metadata>
  <defs
     id="defs8" />
  <sodipodi:namedview
     pagecolor="#ffffff"
     bordercolor="#666666"
     borderopacity="1"
     objecttolerance="10"
     gridtolerance="10"
     guidetolerance="10"
     inkscape:pageopacity="0"
     inkscape:pageshadow="2"
     inkscape:window-width="1600"
     inkscape:window-height="825"
     id="namedview6"
     showgrid="false"
     inkscape:zoom="4.72"
     inkscape:cx="25"
     inkscape:cy="25"
     inkscape:window-x="0"
     inkscape:window-y="0"
     inkscape:window-maximized="1"
     inkscape:current-layer="svg4" />
  <path
     d="M 46.792969 22.089844 L 27.910156 3.207031 C 27.109375 2.402344 26.054688 2 25 2 C 23.945313 2 22.890625 2.402344 22.089844 3.207031 L 18.355469 6.941406 L 22.976563 11.5625 C 24.511719 10.660156 26.511719 10.855469 27.828125 12.171875 C 29.144531 13.488281 29.335938 15.488281 28.433594 17.019531 L 32.976563 21.5625 C 34.511719 20.660156 36.511719 20.855469 37.828125 22.171875 C 39.390625 23.734375 39.390625 26.265625 37.828125 27.828125 C 36.265625 29.390625 33.734375 29.390625 32.171875 27.828125 C 30.855469 26.511719 30.660156 24.511719 31.5625 22.976563 L 27.019531 18.433594 C 26.695313 18.625 26.355469 18.765625 26 18.855469 L 26 31.140625 C 27.722656 31.585938 29 33.136719 29 35 C 29 37.210938 27.210938 39 25 39 C 22.789063 39 21 37.210938 21 35 C 21 33.136719 22.277344 31.585938 24 31.140625 L 24 18.855469 C 23.332031 18.683594 22.695313 18.351563 22.171875 17.828125 C 20.855469 16.511719 20.664063 14.511719 21.566406 12.980469 L 16.941406 8.355469 L 3.207031 22.089844 C 1.597656 23.695313 1.597656 26.304688 3.207031 27.910156 L 22.089844 46.792969 C 22.890625 47.597656 23.945313 48 25 48 C 26.054688 48 27.109375 47.597656 27.910156 46.792969 L 46.792969 27.910156 C 48.402344 26.304688 48.402344 23.695313 46.792969 22.089844 Z"
     id="path2"
     style="fill:#333333;fill-opacity:1" />
</svg>
