<?xml version="1.0" encoding="UTF-8" standalone="no"?>
<!-- Generator: Adobe Illustrator 18.1.1, SVG Export Plug-In . SVG Version: 6.00 Build 0)  -->

<svg
   version="1.1"
   id="Capa_1"
   x="0px"
   y="0px"
   viewBox="0 0 27.442 27.442"
   style="enable-background:new 0 0 27.442 27.442;"
   xml:space="preserve"
   sodipodi:docname="telefono-movil.svg"
   inkscape:version="1.1 (1:1.1+202105261517+ce6663b3b7)"
   xmlns:inkscape="http://www.inkscape.org/namespaces/inkscape"
   xmlns:sodipodi="http://sodipodi.sourceforge.net/DTD/sodipodi-0.dtd"
   xmlns="http://www.w3.org/2000/svg"
   xmlns:svg="http://www.w3.org/2000/svg"><defs
   id="defs1626" /><sodipodi:namedview
   id="namedview1624"
   pagecolor="#ffffff"
   bordercolor="#666666"
   borderopacity="1.0"
   inkscape:pageshadow="2"
   inkscape:pageopacity="0.0"
   inkscape:pagecheckerboard="0"
   showgrid="false"
   inkscape:zoom="19.750747"
   inkscape:cx="13.695684"
   inkscape:cy="13.721"
   inkscape:window-width="1313"
   inkscape:window-height="713"
   inkscape:window-x="53"
   inkscape:window-y="27"
   inkscape:window-maximized="1"
   inkscape:current-layer="Capa_1" />
<g
   id="g1591">
	<path
   d="M19.494,0H7.948C6.843,0,5.951,0.896,5.951,1.999v23.446c0,1.102,0.892,1.997,1.997,1.997h11.546   c1.103,0,1.997-0.895,1.997-1.997V1.999C21.491,0.896,20.597,0,19.494,0z M10.872,1.214h5.7c0.144,0,0.261,0.215,0.261,0.481   s-0.117,0.482-0.261,0.482h-5.7c-0.145,0-0.26-0.216-0.26-0.482C10.612,1.429,10.727,1.214,10.872,1.214z M13.722,25.469   c-0.703,0-1.275-0.572-1.275-1.276s0.572-1.274,1.275-1.274c0.701,0,1.273,0.57,1.273,1.274S14.423,25.469,13.722,25.469z    M19.995,21.1H7.448V3.373h12.547V21.1z"
   id="path1559"
   style="fill:#ffffff" />
	<g
   id="g1561">
	</g>
	<g
   id="g1563">
	</g>
	<g
   id="g1565">
	</g>
	<g
   id="g1567">
	</g>
	<g
   id="g1569">
	</g>
	<g
   id="g1571">
	</g>
	<g
   id="g1573">
	</g>
	<g
   id="g1575">
	</g>
	<g
   id="g1577">
	</g>
	<g
   id="g1579">
	</g>
	<g
   id="g1581">
	</g>
	<g
   id="g1583">
	</g>
	<g
   id="g1585">
	</g>
	<g
   id="g1587">
	</g>
	<g
   id="g1589">
	</g>
</g>
<g
   id="g1593">
</g>
<g
   id="g1595">
</g>
<g
   id="g1597">
</g>
<g
   id="g1599">
</g>
<g
   id="g1601">
</g>
<g
   id="g1603">
</g>
<g
   id="g1605">
</g>
<g
   id="g1607">
</g>
<g
   id="g1609">
</g>
<g
   id="g1611">
</g>
<g
   id="g1613">
</g>
<g
   id="g1615">
</g>
<g
   id="g1617">
</g>
<g
   id="g1619">
</g>
<g
   id="g1621">
</g>
</svg>
